{"asset":{"version":"2.0","generator":"VECTARY"},"nodes":[{"translation":[-0.00016231653781522936,1.3322676295501879e-18,-0.007885085525990463],"scale":[0.001856761378065033,0.001856761378065033,0.001856761378065033],"rotation":[-0.7071067811865475,0,0,0.7071067811865476],"name":"Alien planet #1","children":[1,2,3,4,5]},{"translation":[-2.327888520562528,40.869211547716105,49.97544361977413],"scale":[37.182025985027245,37.18202598502724,37.18202598502724],"rotation":[0.7071067811865474,0,0,0.7071067811865477],"name":"Planet","mesh":0},{"translation":[-2.4616995393229693,34.058683245229915,50.859704897562764],"scale":[37.182025985027245,37.18202598502724,37.18202598502724],"rotation":[0.7071067811865474,0,0,0.7071067811865477],"name":"Craters","mesh":1},{"translation":[-5.098323822021484,3.8935375213623047,8.720020294189418],"scale":[1,1,1],"rotation":[0,0,0,1],"name":"Grass","mesh":2},{"translation":[2.220446049250313e-16,-0.7528572082519538,-5.551115123125783e-17],"scale":[1.0000000000000002,1.0000000000000002,1.0000000000000002],"rotation":[0,0,0,1],"name":"Mushrooms","mesh":3},{"translation":[-2.438751220703125,4.118930816650391,6.773351669311495],"scale":[1,1,1],"rotation":[0,0,0,1],"name":"Rocks","mesh":4},{"translation":[-0.3482687152317671,0.3941813634742523,0.8036932002886097],"scale":[1,1,1],"rotation":[-0.16519134247756717,-0.18833112472365257,-0.03215310266900817,0.9675791367219218],"name":"Camera","camera":0}],"materials":[{"pbrMetallicRoughness":{"baseColorFactor":[0.057777948677539825,0.01080221589654684,0.05397200584411621,1],"metallicFactor":0,"roughnessFactor":1},"name":"Material 21","emissiveFactor":[0,0,0],"alphaMode":"OPAQUE","doubleSided":false},{"pbrMetallicRoughness":{"baseColorFactor":[1,1,1,1],"metallicFactor":1,"roughnessFactor":1},"name":"Material 22","emissiveFactor":[1,0.027097346261143684,0.010509352199733257],"alphaMode":"OPAQUE","doubleSided":false},{"pbrMetallicRoughness":{"baseColorFactor":[0,0.7742716073989868,0.3451060354709625,1],"metallicFactor":0,"roughnessFactor":0.5},"name":"Material 17","emissiveFactor":[0,0,0],"alphaMode":"OPAQUE","doubleSided":false},{"pbrMetallicRoughness":{"baseColorFactor":[0.8000000715255736,0.5419803857803344,0.23976299166679377,1],"metallicFactor":0,"roughnessFactor":0.5},"name":"Material 18","emissiveFactor":[0,0,0],"alphaMode":"OPAQUE","doubleSided":false},{"pbrMetallicRoughness":{"baseColorFactor":[0.8000000715255736,0.04761191457509993,0.04761191457509993,1],"metallicFactor":0,"roughnessFactor":0.8999999761581421},"name":"Material 20","emissiveFactor":[0,0,0],"alphaMode":"OPAQUE","doubleSided":false}],"meshes":[{"primitives":[{"mode":4,"attributes":{"POSITION":1,"NORMAL":2,"TEXCOORD_0":3},"material":0,"indices":0}]},{"primitives":[{"mode":4,"attributes":{"POSITION":5,"NORMAL":6,"TEXCOORD_0":7},"material":1,"indices":4}]},{"primitives":[{"mode":4,"attributes":{"POSITION":9,"NORMAL":10,"TEXCOORD_0":11},"material":2,"indices":8}]},{"primitives":[{"mode":4,"attributes":{"POSITION":13,"NORMAL":14,"TEXCOORD_0":15},"material":3,"indices":12}]},{"primitives":[{"mode":4,"attributes":{"POSITION":17,"NORMAL":18,"TEXCOORD_0":19},"material":4,"indices":16}]}],"accessors":[{"bufferView":0,"byteOffset":0,"componentType":5125,"count":2655,"type":"SCALAR"},{"bufferView":1,"byteOffset":0,"componentType":5126,"count":2655,"max":[1.0562070608139038,1.056679606437683,2.146451234817505],"min":[-1.0562070608139038,-1.056679606437683,-2.839369318039886e-16],"type":"VEC3"},{"bufferView":2,"byteOffset":0,"componentType":5126,"count":2655,"type":"VEC3"},{"bufferView":3,"byteOffset":0,"componentType":5126,"count":2655,"type":"VEC2"},{"bufferView":4,"byteOffset":0,"componentType":5125,"count":333,"type":"SCALAR"},{"bufferView":5,"byteOffset":0,"componentType":5126,"count":333,"max":[0.9230501651763916,0.8931729197502136,1.8441505432128906],"min":[-0.9230501651763916,-0.8931729793548584,-1.7291462934147296e-16],"type":"VEC3"},{"bufferView":6,"byteOffset":0,"componentType":5126,"count":333,"type":"VEC3"},{"bufferView":7,"byteOffset":0,"componentType":5126,"count":333,"type":"VEC2"},{"bufferView":8,"byteOffset":0,"componentType":5125,"count":4080,"type":"SCALAR"},{"bufferView":9,"byteOffset":0,"componentType":5126,"count":4080,"max":[38.751102447509766,41.95329666137695,81.45539855957031],"min":[-38.751102447509766,-41.95329666137695,7.105427357601002e-15],"type":"VEC3"},{"bufferView":10,"byteOffset":0,"componentType":5126,"count":4080,"type":"VEC3"},{"bufferView":11,"byteOffset":0,"componentType":5126,"count":4080,"type":"VEC2"},{"bufferView":12,"byteOffset":0,"componentType":5125,"count":13728,"type":"SCALAR"},{"bufferView":13,"byteOffset":0,"componentType":5126,"count":13728,"max":[49.0606575012207,46.86982727050781,100],"min":[-49.0606575012207,-46.86982727050781,5.551115123125783e-17],"type":"VEC3"},{"bufferView":14,"byteOffset":0,"componentType":5126,"count":13728,"type":"VEC3"},{"bufferView":15,"byteOffset":0,"componentType":5126,"count":13728,"type":"VEC2"},{"bufferView":16,"byteOffset":0,"componentType":5125,"count":3696,"type":"SCALAR"},{"bufferView":17,"byteOffset":0,"componentType":5126,"count":3696,"max":[39.733367919921875,43.503753662109375,82.92662811279297],"min":[-39.733367919921875,-43.503753662109375,0],"type":"VEC3"},{"bufferView":18,"byteOffset":0,"componentType":5126,"count":3696,"type":"VEC3"},{"bufferView":19,"byteOffset":0,"componentType":5126,"count":3696,"type":"VEC2"}],"bufferViews":[{"buffer":0,"byteOffset":0,"byteLength":10620,"target":34963},{"buffer":0,"byteOffset":10620,"byteLength":31860,"target":34962},{"buffer":0,"byteOffset":42480,"byteLength":31860,"target":34962},{"buffer":0,"byteOffset":74340,"byteLength":21240,"target":34962},{"buffer":0,"byteOffset":95580,"byteLength":1332,"target":34963},{"buffer":0,"byteOffset":96912,"byteLength":3996,"target":34962},{"buffer":0,"byteOffset":100908,"byteLength":3996,"target":34962},{"buffer":0,"byteOffset":104904,"byteLength":2664,"target":34962},{"buffer":0,"byteOffset":107568,"byteLength":16320,"target":34963},{"buffer":0,"byteOffset":123888,"byteLength":48960,"target":34962},{"buffer":0,"byteOffset":172848,"byteLength":48960,"target":34962},{"buffer":0,"byteOffset":221808,"byteLength":32640,"target":34962},{"buffer":0,"byteOffset":254448,"byteLength":54912,"target":34963},{"buffer":0,"byteOffset":309360,"byteLength":164736,"target":34962},{"buffer":0,"byteOffset":474096,"byteLength":164736,"target":34962},{"buffer":0,"byteOffset":638832,"byteLength":109824,"target":34962},{"buffer":0,"byteOffset":748656,"byteLength":14784,"target":34963},{"buffer":0,"byteOffset":763440,"byteLength":44352,"target":34962},{"buffer":0,"byteOffset":807792,"byteLength":44352,"target":34962},{"buffer":0,"byteOffset":852144,"byteLength":29568,"target":34962}],"cameras":[{"name":"Camera","type":"perspective","extras":{"targetDistance":0.9568282874062501},"perspective":{"aspectRatio":1.3915094339622642,"yfov":0.6108652381980153,"zfar":56.32510743218071,"znear":0.004728103131197495}}],"scene":0,"scenes":[{"nodes":[0,6],"name":"test"}],"extensionsUsed":["KHR_texture_transform"],"buffers":[{"byteLength":881712,"uri":"test.bin"}]}